<svg xmlns="http://www.w3.org/2000/svg" width="436" height="360" fill="none" viewBox="0 0 436 360"><g filter="url(#filter0_f_5488_3806)" opacity=".15"><path fill="url(#paint0_linear_5488_3806)" d="M416.94 21L165.546 340H19L55.5693 293.581L138.137 190.103L138.141 190.098L233.312 68.0605L233.313 68.0615L270.394 21H416.94ZM282.514 293.771H390.497L354.052 339.998H207.856L220.612 323.807C235.554 304.84 258.368 293.771 282.514 293.771ZM227.134 21L220.756 29.0889C201.752 53.1885 172.752 67.252 142.061 67.252H43.9502L80.3965 21H227.134Z"/></g><path stroke="url(#paint1_linear_5488_3806)" d="M416.94 21L165.546 340H19L55.5693 293.581L138.137 190.103L138.141 190.098L233.312 68.0605L233.313 68.0615L270.394 21H416.94ZM282.514 293.771H390.497L354.052 339.998H207.856L220.612 323.807C235.554 304.84 258.368 293.771 282.514 293.771ZM227.134 21L220.756 29.0889C201.752 53.1885 172.752 67.252 142.061 67.252H43.9502L80.3965 21H227.134Z"/><defs><filter id="filter0_f_5488_3806" width="402.74" height="323.8" x="16.6" y="18.6" color-interpolation-filters="sRGB" filterUnits="userSpaceOnUse"><feFlood flood-opacity="0" result="BackgroundImageFix"/><feBlend in="SourceGraphic" in2="BackgroundImageFix" mode="normal" result="shape"/><feGaussianBlur result="effect1_foregroundBlur_5488_3806" stdDeviation="1.2"/></filter><linearGradient id="paint0_linear_5488_3806" x1="217.97" x2="217.97" y1="20.5" y2="340.5" gradientUnits="userSpaceOnUse"><stop stop-color="#444" stop-opacity=".6"/><stop offset=".5" stop-color="#2A2A2A" stop-opacity=".3"/><stop offset="1" stop-color="#1A1A1A" stop-opacity=".1"/></linearGradient><linearGradient id="paint1_linear_5488_3806" x1="217.97" x2="217.97" y1="20.5" y2="340.5" gradientUnits="userSpaceOnUse"><stop stop-color="#444" stop-opacity=".6"/><stop offset=".5" stop-color="#2A2A2A" stop-opacity=".3"/><stop offset="1" stop-color="#1A1A1A" stop-opacity=".1"/></linearGradient></defs></svg>